<svg width="800" height="800" viewBox="0 0 800 800" fill="none" xmlns="http://www.w3.org/2000/svg">
<path d="M663.996 305.873C663.996 315.213 667.707 324.171 674.311 330.776C680.916 337.381 689.874 341.091 699.215 341.091C708.555 341.091 717.514 337.381 724.118 330.776C730.723 324.171 734.434 315.213 734.434 305.873C734.434 296.532 730.723 287.574 724.118 280.969C717.514 274.364 708.555 270.654 699.215 270.654C689.874 270.654 680.916 274.364 674.311 280.969C667.707 287.574 663.996 296.532 663.996 305.873Z" fill="#226F54"/>
<path d="M100.785 85.218C100.785 94.5584 104.496 103.516 111.1 110.121C117.705 116.725 126.663 120.436 136.003 120.436C145.344 120.436 154.301 116.725 160.906 110.121C167.511 103.516 171.221 94.5584 171.221 85.218C171.221 75.8776 167.511 66.9198 160.906 60.3151C154.301 53.7105 145.344 50 136.003 50C126.663 50 117.705 53.7105 111.1 60.3151C104.496 66.9198 100.785 75.8776 100.785 85.218Z" fill="#226F54"/>
<path d="M534.137 621.957H612.386V422.779H504.945V470.249H570.443V579.323H504.945V621.957H534.137Z" fill="#226F54"/>
<path d="M512.797 330.303V680.691C512.797 717.38 488.186 750 451.498 750H218.995C182.309 750 157.123 717.38 157.123 680.691V330.303H512.797Z" fill="#226F54"/>
<path d="M512.797 330.303H441.662V363.123C435.14 358.492 429.113 353.205 423.82 347.229C404.838 368.657 377.194 382.24 346.318 382.24C308.722 382.24 275.904 362.148 257.746 332.182C239.59 362.148 206.77 382.24 169.173 382.24C165.089 382.24 161.083 381.934 157.123 381.473V439.003C193.794 438.233 225.719 418.467 243.519 389.091C261.677 419.057 294.495 439.148 332.091 439.148C362.969 439.148 390.612 425.566 409.592 404.137C418.534 414.23 429.447 422.495 441.662 428.507V680.691C441.662 717.38 417.051 749.998 380.363 749.998H451.497C488.185 749.998 512.796 717.38 512.796 680.691L512.797 330.303Z" fill="#030504"/>
<path d="M501.319 189.253C470.442 189.253 431.442 209.366 429.595 207.567C452.321 195.893 456.827 183.344 456.827 156.038C456.827 117.161 425.311 85.6453 386.434 85.6453C347.559 85.6453 316.042 117.16 316.042 156.038C316.042 160.684 284.034 141.003 260.824 141.003C228.627 141.003 201.539 162.645 193.161 192.157C185.451 190.326 177.445 189.253 169.174 189.253C111.954 189.253 65.5671 235.64 65.5671 292.86C65.5671 350.08 111.954 396.467 169.174 396.467C206.77 396.467 239.59 376.375 257.746 346.409C275.905 376.375 308.723 396.467 346.318 396.467C377.196 396.467 404.838 382.885 423.819 361.456C442.8 382.884 470.441 396.467 501.319 396.467C558.54 396.467 604.927 350.08 604.927 292.86C604.927 235.64 558.541 189.253 501.319 189.253Z" fill="#FF3B30"/>
<path d="M103.446 325.14C103.013 325.14 102.586 325.117 102.148 325.069C95.7437 324.363 91.1234 318.598 91.8312 312.192C95.3859 280.02 112.481 250.634 138.726 231.571C143.95 227.783 151.241 228.941 155.024 234.154C158.812 239.366 157.656 246.664 152.444 250.448C131.498 265.662 117.86 289.1 115.029 314.755C114.366 320.723 109.313 325.14 103.446 325.14ZM221.64 205.73C218.859 205.733 216.168 204.739 214.058 202.927C209.163 198.734 208.595 191.371 212.782 186.475C228.391 168.246 251.086 157.791 275.052 157.791C281.494 157.791 286.718 163.014 286.718 169.457C286.718 175.899 281.494 181.123 275.052 181.123C257.91 181.123 241.674 188.605 230.509 201.651C229.414 202.932 228.054 203.961 226.523 204.665C224.991 205.369 223.325 205.733 221.64 205.73Z" fill="white"/>
<path d="M229.292 332.182C211.135 362.148 178.316 382.24 140.719 382.24C129.802 382.24 119.29 380.529 109.409 377.398C126.306 389.366 146.892 396.466 169.173 396.466C202.179 396.466 231.487 380.971 250.441 356.915C242.206 349.792 234.966 341.545 229.292 332.182ZM428.372 141.811C428.372 169.117 423.866 181.666 401.141 193.34C402.645 194.804 428.809 181.733 455.152 176.837C456.325 170.938 456.826 164.208 456.826 156.038C456.826 122.684 433.563 94.8969 402.42 87.6344C418.137 100.543 428.372 119.884 428.372 141.811ZM395.366 347.229C376.385 368.657 348.741 382.24 317.865 382.24C306.889 382.24 296.4 380.35 286.486 377.179C303.385 389.239 323.962 396.466 346.318 396.466C374.528 396.466 399.956 385.047 418.628 366.748C409.961 361.377 402.097 354.828 395.366 347.229ZM532.631 194.095C559.126 212.862 576.473 243.695 576.473 278.632C576.473 335.852 530.086 382.239 472.866 382.239C461.961 382.239 451.495 380.466 441.635 377.33C458.506 389.317 479.042 396.465 501.32 396.465C558.541 396.465 604.927 350.079 604.927 292.859C604.927 246.558 574.541 207.37 532.631 194.095ZM285.169 697.645C278.725 697.645 273.502 692.42 273.502 685.978V458.347C273.502 451.904 278.726 446.68 285.169 446.68C291.611 446.68 296.835 451.904 296.835 458.347V685.978C296.835 692.42 291.611 697.645 285.169 697.645ZM384.756 697.645C378.314 697.645 373.09 692.42 373.09 685.978V458.347C373.09 451.904 378.314 446.68 384.756 446.68C391.2 446.68 396.423 451.904 396.423 458.347V685.978C396.423 692.42 391.2 697.645 384.756 697.645Z" fill="#030504"/>
</svg>
