<svg width="2142" height="1205" viewBox="0 0 2142 1205" fill="none" xmlns="http://www.w3.org/2000/svg">
<path d="M443.4 1061.4C445.7 1060.6 448.1 1060.6 450.5 1060.6C486.5 1060.6 522.5 1060.6 558.5 1060.6C560.1 1060.6 561.7 1060.6 563.3 1060.5C563.6 1060.5 563.9 1060.3 564.1 1060.1C564.4 1059.8 564.2 1059.5 563.9 1059.3C562.9 1058.5 561.9 1057.7 561 1056.8C555.2 1051.4 552.1 1044.8 552.1 1036.8C552 1021.3 552.1 1005.8 552.1 990.2C552.1 889.2 552.1 788.3 552.1 687.3C552.1 677.4 552 667.5 552.1 657.5C552.5 630.3 563.8 608.9 585.6 592.7C587.1 591.6 589.3 591 590.1 589.2C590.9 587.5 590.9 585.5 591.1 583.6C592.5 571 593.9 558.5 595.4 545.9C596.8 533.4 598.4 520.8 599.8 508.3C601.2 495.9 602.6 483.5 604 471.1C605.4 458.5 606.9 446 608.4 433.5C609.5 423.8 610.6 414.1 611.7 404.4C612.8 394.7 614 385 615.1 375.3C616.2 365.9 617.2 356.6 618.3 347.2C619.5 337 620.6 326.9 621.8 316.7C622.2 313.2 622.6 309.7 623 306.2C623.2 304.4 622.7 304 620.8 303.9C619.7 303.8 618.6 303.9 617.4 303.8C615.5 303.7 614.9 303.1 614.8 301.1C614.7 300.3 614.7 299.5 614.7 298.7C614.7 293.7 614.7 288.8 614.7 283.8C614.7 281.2 614.9 278.7 615.8 276.2C618.5 268.2 625.7 264.2 631.6 264.1C633 264.1 634.5 264 635.9 264C657.3 264 678.8 264 700.2 264C701.5 264 702.8 264 704 264C712.6 264.1 720.7 271.5 721 281C721.2 287.6 721.1 294.1 721 300.7C721 303.3 720.6 303.8 717.9 303.8C713.9 303.8 714 304.4 714.3 308.1C715 316.5 715.8 325 716.6 333.4C717.4 342.2 718.2 350.9 719 359.7C720.2 372.9 721.4 386.1 722.6 399.4C723.4 408.2 724.1 416.9 724.9 425.7C726 438 727.2 450.2 728.3 462.5C729.1 471.7 729.9 481 730.7 490.2C731.5 498.8 732.3 507.4 733.1 516C733.9 524.6 734.6 533.2 735.4 541.8C736.2 550.9 737.1 560 737.9 569C738.4 574.6 739 580.1 739.3 585.7C739.4 588.4 740.4 590 742.7 591.5C756.3 600.5 766.1 612.6 772.3 627.7C776.4 637.6 778.1 648 778.1 658.6C778.1 659.9 778.1 661.2 778.1 662.4C778.1 785.1 778.1 907.8 778.1 1030.5C778.1 1033.1 778.1 1035.6 777.9 1038.2C777.5 1045.8 774.1 1052 768.5 1057C767.8 1057.6 767 1058.2 766.3 1058.8C766.1 1059 765.9 1059.3 765.9 1059.6C765.9 1060.3 766.5 1060.3 767 1060.3C768.1 1060.4 769.2 1060.4 770.4 1060.4C796 1060.4 821.6 1060.4 847.2 1060.4C848.3 1060.4 849.4 1060.4 850.6 1060.3C850.9 1060.3 851.3 1060.2 851.4 1059.9C851.8 1059.3 851.2 1059.1 850.9 1058.8C849.9 1058 848.9 1057.2 848 1056.3C842.5 1051.1 839.6 1044.7 839.3 1037.1C839.2 1035.2 839.3 1033.3 839.3 1031.3C839.3 916.7 839.3 802.2 839.3 687.6C839.3 677.2 839.2 666.8 839.3 656.4C839.5 640.3 844.1 625.5 853.3 612.3C858.9 604.2 865.7 597.2 874 591.8C876.7 590 877.8 588 878.1 584.9C879.1 575 880.3 565.2 881.5 555.4C883 542.5 884.5 529.7 886 516.8C887.1 507.4 888.1 498.1 889.2 488.7C890.4 478.5 891.6 468.4 892.7 458.2C893.8 448.8 894.8 439.5 895.9 430.1C897.4 417.2 898.9 404.4 900.4 391.5C901.5 381.8 902.6 372.1 903.7 362.4C904.8 352.7 905.9 343 907.1 333.3C908.1 324.4 909.2 315.5 910.2 306.6C910.4 305.1 910.3 303.9 908.4 303.3C906.5 302.7 905.2 301.2 904.7 299.2C903.8 295.6 905.7 292.4 909.4 291.6C910.8 291.3 912.3 291.3 913.7 291.2C914.4 291.1 914.9 290.7 915 290C915.1 289.4 915.1 288.7 915.1 288.1C916.3 274.7 927.2 266.1 940.4 268.2C941.7 268.4 943.2 269.8 944.4 268.4C945.2 267.5 945.3 266.1 945.7 264.9C949.4 254 956.8 246.9 968 244.6C979.5 242.2 989.7 245.4 997.3 254.6C1005 263.9 1006.4 274.4 1002 285.6C1001.5 286.9 1000.7 288.2 1000.1 289.5C999.5 290.8 999.6 291 1000.9 291.7C1001.5 292 1002.1 292.1 1002.7 292.5C1006.1 294.7 1006.7 299 1004 302C1003.7 302.4 1003.3 302.7 1002.9 302.9C1001.6 303.7 1001.4 304.8 1001.5 306.2C1002 311.6 1002.4 317 1002.9 322.5C1004.1 336.2 1005.4 349.9 1006.6 363.6C1008 379.4 1009.5 395.1 1011 410.9C1012.1 423.2 1013.1 435.4 1014.2 447.7C1015.3 460 1016.5 472.2 1017.6 484.5C1018.4 493.1 1019.1 501.7 1019.9 510.3C1020.7 519.4 1021.6 528.5 1022.4 537.5C1023.1 545.3 1023.8 553.1 1024.5 560.9C1025.2 569.3 1026 577.8 1026.6 586.2C1026.8 588.5 1027.6 590 1029.6 591.2C1037.1 596 1043.5 602 1048.9 609.1C1059.8 623.4 1065.3 639.6 1065.3 657.7C1065.2 764.3 1065.3 870.8 1065.3 977.4C1065.3 979.7 1064.4 982.1 1066 984.3C1068.2 983.5 1069.4 981.5 1071 980C1073.3 977.8 1075.6 975.5 1077.8 973.2C1085.2 965.8 1097 966.5 1103.7 973.3C1120 989.8 1136.5 1006.1 1152.9 1022.6C1160.3 1030.1 1160.3 1040.8 1153 1048.4C1149.7 1051.9 1146.2 1055.2 1142.9 1058.6C1142.6 1058.9 1142.1 1059.3 1142.5 1059.8C1142.8 1060.1 1143.3 1060.3 1143.7 1060.3C1144.8 1060.4 1145.9 1060.4 1147.1 1060.4C1177.8 1060.4 1208.5 1060.4 1239.3 1060.4C1240.7 1060.4 1242.2 1060.3 1243.6 1060.2C1243.7 1060.2 1243.9 1059.5 1243.9 1059.5C1243.2 1058.9 1242.4 1058.3 1241.6 1057.8C1234.4 1052.7 1230.2 1045.8 1228.9 1037.2C1228.6 1035.1 1228.6 1033.1 1229 1031C1232.2 1013.9 1235.5 996.8 1238.5 979.6C1240.8 966.1 1242.9 952.5 1244.9 938.8C1246.9 925 1248.7 911.2 1250.3 897.4C1251.7 885.2 1252.8 872.9 1253.7 860.6C1254.4 850.4 1254.8 840.2 1255.2 829.9C1256 810.6 1253.4 791.6 1248.3 773C1243.7 755.8 1237.6 739.2 1230.8 722.7C1222.6 702.6 1214.1 682.5 1206 662.4C1196.6 639.3 1188.3 615.8 1182 591.6C1176.8 571.6 1172.9 551.4 1170.7 530.8C1167.9 505 1167.2 479.1 1168.2 453.2C1169.2 428.5 1172.3 404.1 1178.4 380.2C1179.4 376.2 1180.1 377 1176 374C1165.3 366 1157.7 355.7 1153.6 343C1141.6 305.3 1166.2 268.3 1202.3 262.2C1206.6 261.5 1210.9 261.4 1215.2 261.4C1217.1 261.4 1217.5 261 1217.3 259.1C1216.8 251.2 1217.9 243.5 1220.6 236C1229.5 211.4 1254.1 195.7 1280.1 198.4C1305.8 201.1 1324.5 219.6 1330 241.9C1330.1 242.2 1330.1 242.5 1330.2 242.8C1330.9 247 1331.7 246.2 1334.5 245.6C1342.3 244 1349.8 244.8 1356.8 248.8C1357.2 249 1357.6 249.3 1358 249.5C1359.9 250.5 1360 250.5 1361.6 248.8C1362.2 248.1 1362.8 247.3 1363.5 246.6C1383.8 224.3 1420.1 226.5 1437.5 252.1C1437.7 252.4 1437.9 252.6 1438 252.9C1439 255.5 1440.9 255.5 1443.4 255.2C1473.3 251.3 1499.9 271.1 1505.7 299.2C1509 315 1506 329.7 1496.9 343.1C1496.5 343.6 1496.2 344.2 1495.8 344.7C1494.8 345.8 1494.8 346.9 1495.4 348.2C1498 353.9 1500.1 359.7 1502.1 365.7C1506.9 380.5 1510.2 395.6 1512.5 411C1515.7 431.6 1516.9 452.3 1517.1 473.2C1517.2 485.7 1516.6 498.1 1515.8 510.6C1515.2 518.4 1514.6 526.2 1513.7 534C1511.8 551.5 1508.5 568.8 1504.3 585.9C1497.7 612.3 1488.8 638 1478.5 663.2C1470.3 683.5 1461.8 703.7 1453.5 724C1448 737.5 1443 751.1 1438.8 765.1C1432 787.5 1428.8 810.3 1429.8 833.7C1430.5 848.6 1431.3 863.4 1432.6 878.2C1435 905 1438.6 931.6 1442.7 958.1C1446.3 981.6 1450.4 1005.1 1455.2 1028.5C1457.2 1038.3 1454.2 1046.4 1447.9 1053.7C1446 1055.9 1443.7 1057.6 1441.2 1059.1C1441 1059.3 1440.7 1059.5 1440.7 1059.8C1440.7 1060.5 1441.3 1060.5 1441.7 1060.5C1443.3 1060.6 1444.9 1060.6 1446.5 1060.6C1501.4 1060.6 1556.3 1060.6 1611.1 1060.6C1613.1 1060.6 1615.3 1060.1 1617.2 1061.4C1617.2 1062 1617.2 1062.7 1617.2 1063.3C1614.8 1063.4 1612.4 1063.6 1610 1063.6C1423.2 1063.6 1236.4 1063.6 1049.6 1063.6C1047.8 1063.6 1046.1 1063.6 1044.3 1063.6C1043.5 1063.6 1042.7 1063.6 1042.1 1064.2C982.3 1064.2 922.4 1064.2 862.6 1064.2C861 1063 859.2 1063.6 857.5 1063.6C840.1 1063.6 822.7 1063.6 805.2 1063.6C790.2 1063.6 775.2 1063.6 760.1 1063.6C758.4 1063.6 756.6 1063.1 755 1064.2C695.5 1064.2 636 1064.2 576.4 1064.2C574.6 1063.2 572.7 1063.6 570.8 1063.6C532.2 1063.6 493.5 1063.6 454.9 1063.6C451.2 1063.6 447.6 1063.4 443.9 1063.3C443.4 1062.7 443.4 1062.1 443.4 1061.4Z" fill="#524E43"/>
<path d="M1341.3 1059.4C1368 1059.4 1394.7 1059.4 1421.5 1059.4C1423.1 1059.4 1424.7 1059.4 1426.3 1059.3C1438.8 1058.4 1448.5 1050.2 1451 1038.2C1451.9 1033.8 1451.7 1033.5 1447.3 1033.5C1440.6 1033.5 1433.9 1033.5 1427.1 1033.5C1425.8 1033.5 1424.5 1033.5 1423.3 1033.3C1422.3 1033.2 1421.6 1032.3 1421.7 1031.3C1421.8 1030.4 1422.3 1029.8 1423.2 1029.7C1424.5 1029.6 1425.7 1029.5 1427 1029.5C1433.1 1029.5 1439.2 1029.5 1445.2 1029.5C1446.5 1029.5 1447.8 1029.5 1449 1029.4C1450 1029.3 1450.3 1028.6 1450.2 1027.7C1450.1 1027.2 1450 1026.8 1449.9 1026.3C1447 1010.3 1443.9 994.2 1441.2 978.2C1438.9 964.8 1437 951.4 1435 937.9C1433 924.6 1431.4 911.3 1429.9 897.9C1428.4 884.7 1427.3 871.5 1426.3 858.2C1425.6 848.1 1425.3 838.1 1425 828C1424.7 815.5 1425.6 803.1 1427.8 790.8C1430.8 774.4 1435.6 758.5 1441.3 742.8C1448.2 723.5 1456.3 704.7 1464.2 685.9C1473.9 662.7 1483.2 639.4 1491 615.6C1503 578.7 1509.9 540.9 1511.6 502.2C1512.4 485.4 1512.6 468.6 1511.8 451.8C1511.3 442.4 1510.7 432.9 1509.4 423.6C1508.6 417.6 1510 418.1 1503.1 418.1C1465.5 418.1 1427.9 418.1 1390.3 418.1C1383 418.1 1383.9 417.2 1383.9 424.4C1383.9 446 1383.9 467.6 1383.9 489.2C1383.9 493.1 1383.8 496.9 1382.7 500.6C1378.5 515.7 1368.8 525.4 1353.4 528.4C1337.4 531.5 1324.4 525.8 1315 512.5C1310.6 506.3 1308.8 499.3 1308.8 491.7C1308.9 478.3 1308.8 464.8 1308.8 451.4C1308.8 450.2 1309.4 448.4 1308.4 447.8C1306.9 446.9 1306 448.8 1304.9 449.5C1291.1 458.7 1273.1 451.6 1269.4 435.4C1269 433.7 1268.9 431.9 1268.9 430.2C1268.8 426.8 1268.9 423.5 1268.8 420.1C1268.8 418.5 1268.3 418.2 1266.8 418.1C1266 418 1265.2 418.1 1264.4 418.1C1235.8 418.1 1207.1 418.1 1178.5 418.1C1177.5 418.1 1176.6 418.1 1175.6 418.2C1174.9 418.3 1174.4 418.7 1174.2 419.4C1174 420 1173.9 420.7 1173.9 421.3C1172.5 432.3 1171.6 443.3 1171.2 454.3C1170.2 481 1171.1 507.7 1174.1 534.3C1176.2 553.4 1179.9 572.2 1184.8 590.8C1191.3 615.6 1200 639.7 1209.6 663.4C1217.6 683.1 1225.9 702.7 1233.9 722.4C1241 739.9 1247.4 757.6 1252 776C1255.5 790.2 1257.8 804.5 1258.1 819.1C1258.4 831.4 1257.7 843.7 1256.9 856C1255.9 871.6 1254.4 887.2 1252.6 902.8C1250.6 920.6 1248.2 938.3 1245.4 956C1241.9 978.9 1237.9 1001.8 1233.4 1024.5C1233.2 1025.6 1233 1026.7 1232.9 1027.8C1232.8 1028.8 1233.3 1029.3 1234.2 1029.4C1235.5 1029.5 1236.8 1029.5 1238 1029.5C1249.4 1029.5 1260.7 1029.5 1272.1 1029.5C1311.9 1029.5 1351.8 1029.5 1391.6 1029.5C1393.2 1029.5 1394.8 1029.5 1396.4 1029.7C1397.3 1029.8 1397.8 1030.4 1398 1031.3C1398.1 1032.2 1397.3 1033.3 1396.4 1033.3C1394.8 1033.4 1393.2 1033.4 1391.6 1033.5C1340.4 1033.5 1289.2 1033.5 1238 1033.5C1236.6 1033.5 1235.1 1033.5 1233.7 1033.5C1232.1 1033.6 1231.7 1034.1 1231.8 1035.6C1232.8 1047.1 1241.4 1056.6 1252.8 1058.8C1255.5 1059.3 1258.2 1059.4 1260.9 1059.4C1287.8 1059.3 1314.6 1059.4 1341.3 1059.4Z" fill="#E2B369"/>
<path d="M1272.9 386.3C1272.9 400.2 1272.9 414.1 1272.9 428.1C1272.9 429.4 1272.8 430.7 1272.9 431.9C1273.5 439.9 1279.3 446.9 1287 448.9C1295.1 451 1303.4 447.8 1307.9 440.8C1308.3 440.1 1308.7 439.4 1309.1 438.7C1309.6 437.8 1310.4 437.3 1311.5 437.6C1312.5 437.9 1312.9 438.8 1313 439.8C1313 441.1 1313.1 442.4 1313.1 443.6C1313.1 459.1 1313.1 474.6 1313.1 490.2C1313.1 492.8 1313.1 495.4 1313.6 497.8C1316.4 513.3 1329.6 524.7 1345.6 525.2C1362.8 525.7 1375.2 513.8 1378.7 501C1379.9 496.8 1380.2 492.5 1380.2 488.2C1380.2 447.6 1380.2 406.9 1380.2 366.3C1380.2 365.2 1380.1 364.1 1380.2 362.9C1380.3 361.4 1379.5 360.5 1378.2 360C1377.6 359.8 1377 359.5 1376.4 359.2C1362.1 352.4 1355.2 337.3 1357.2 323.2C1359.6 306.6 1375.4 290.8 1397 294.6C1421.5 298.9 1433.1 326.8 1419.3 347.5C1418.8 348.3 1418.2 349.1 1417.6 349.8C1416.8 350.8 1417.2 351.6 1418 352.2C1418.6 352.7 1419.3 353.2 1419.9 353.6C1431.6 361.7 1444.5 364.8 1458.6 362.6C1486.4 358.2 1506.9 331.3 1501.6 301.7C1496.6 273.7 1469.6 254.9 1442.4 259.4C1436.1 260.4 1437.3 260.4 1434.5 255.8C1418.3 230.1 1382.3 228.3 1363.5 252.2C1362.8 253.1 1362.2 254 1361.5 254.9C1360.6 255.9 1359.7 256 1358.5 255.2C1357.8 254.8 1357.2 254.2 1356.6 253.8C1349.1 248.6 1341 247.6 1332.4 250.2C1331.3 250.5 1330.3 251 1329.2 251.2C1328.3 251.4 1327.2 250.8 1327 249.8C1326.6 248.1 1326.3 246.3 1326 244.6C1319.9 214.5 1289.8 195.9 1260.1 203.9C1236 210.4 1218.8 233.6 1220.9 259.1C1221 260.1 1221.1 261 1221.1 262C1221.2 265 1220.8 265.5 1218 265.4C1217.2 265.4 1216.4 265.3 1215.6 265.3C1211.1 265.1 1206.7 265.3 1202.2 266.1C1169.6 271.8 1148 303.9 1155.4 336.5C1162.2 366.4 1190.7 385.5 1219.4 381.6C1242.5 378.4 1258.3 365.6 1267.1 344.2C1267.8 342.5 1269.1 340.5 1268.3 338.8C1267.7 337.5 1265.5 337.6 1264 337.1C1255.4 333.8 1250 324.9 1251 315.8C1252 306.6 1259 299.3 1268.3 297.8C1271.9 297.2 1275.3 297.8 1278.7 298.8C1279.4 299 1279.9 298.7 1280 297.9C1280 297.4 1279.9 296.9 1279.9 296.5C1279.4 291.9 1279.3 287.3 1280.3 282.7C1283.8 267 1298.3 255 1315.8 255.6C1335.6 256.3 1353.3 274.8 1348.3 298C1343.1 321.9 1316.3 332.3 1296.2 320.3C1292.5 318.1 1292.5 318.1 1291.5 322.4C1289.7 330.2 1284.9 335.4 1277.3 337.8C1276.4 338.1 1275.5 338.3 1274.5 338.5C1273.6 338.7 1273.2 339.4 1273.2 340.2C1273.2 341.5 1273.1 342.8 1273.1 344C1272.9 358.2 1272.9 372.2 1272.9 386.3Z" fill="#FFFEF8"/>
<path d="M555.9 838.8C555.9 888.2 555.9 937.6 555.9 987.1C555.9 988.4 555.9 989.7 555.9 990.9C556 994.1 556.1 994.1 559.1 994.2C559.9 994.2 560.7 994.2 561.5 994.2C630.4 994.2 699.4 994.2 768.3 994.2C774.3 994.2 773.9 994.8 773.9 988.4C773.9 888.6 773.9 788.8 773.9 689C773.9 687.7 773.9 686.4 773.8 685.2C773.7 684.1 773.2 683.4 772 683.4C770.7 683.4 769.4 683.3 768.2 683.3C713.7 683.3 659.1 683.3 604.6 683.3C603.5 683.3 602.4 683.3 601.2 683.3C600 683.3 599.1 683.6 598.7 685C598.5 685.8 598.2 686.5 597.8 687.2C595.4 691.4 591.8 693.8 586.9 693.8C581.8 693.8 578 691.5 575.6 687C575.3 686.4 575 685.8 574.9 685.2C574.5 683.7 573.5 683.2 572.1 683.2C568.7 683.2 565.4 683.2 562 683.2C555.3 683.2 555.9 682.5 555.9 689.4C555.9 739.3 555.9 789.1 555.9 838.8Z" fill="#6E967A"/>
<path d="M1060.8 838.7C1060.8 789 1060.8 739.2 1060.8 689.5C1060.8 682.8 1061.3 683.4 1055 683.4C1000.5 683.4 945.9 683.4 891.4 683.3C888 683.3 886.1 683.9 884.6 687.4C882.7 691.8 878.7 693.9 873.7 693.9C868.8 693.9 865.1 691.6 862.8 687.4C862.4 686.7 862.1 686 861.9 685.2C861.5 683.9 860.7 683.4 859.4 683.4C856 683.4 852.7 683.4 849.3 683.4C842.1 683.4 842.8 682.6 842.8 689.7C842.8 789.2 842.8 888.7 842.8 988.1C842.8 994.9 842.1 994.2 849 994.2C917.5 994.2 985.9 994.2 1054.4 994.2C1061.6 994.2 1060.8 995.1 1060.8 987.8C1060.9 938.1 1060.8 888.4 1060.8 838.7Z" fill="#6E967A"/>
<path d="M973.2 679.4C1000.4 679.4 1027.6 679.4 1054.8 679.4C1056.1 679.4 1057.4 679.4 1058.6 679.4C1060.4 679.3 1060.7 679 1060.8 677C1060.8 676.5 1060.8 676 1060.8 675.6C1060.8 668.9 1060.8 662.2 1060.8 655.4C1060.8 650.7 1060.2 646.1 1059.2 641.6C1054.6 621.7 1043.7 606.1 1026.7 594.7C1022.7 592 1022.7 592 1022.3 587C1021.9 581.7 1021.4 576.5 1020.9 571.2C1019.7 558.3 1018.6 545.4 1017.4 532.5C1016.7 524.2 1015.9 515.9 1015.2 507.6C1014.3 498.2 1013.5 488.8 1012.6 479.4C1011.8 471 1011.1 462.5 1010.3 454.1C1009.2 441.7 1008 429.3 1006.9 416.8C1006.1 408.2 1005.4 399.6 1004.6 391C1003.5 378.7 1002.3 366.5 1001.2 354.2C1000.1 341.8 999 329.3 997.9 316.9C997.6 313.4 997.3 309.9 996.9 306.4C996.7 304.5 996.2 304.1 994.5 304.1C992.1 304 989.7 304 987.3 304.1C985.4 304.1 985 304.6 984.9 306.3C984.8 307.6 984.9 308.9 984.9 310.1C984.9 331.2 984.9 352.3 984.9 373.5C984.9 374.9 984.9 376.4 984.9 377.8C984.5 385.8 978.6 391.8 970.5 392.6C962.7 393.3 955.6 388.2 953.8 380.4C953.3 378.3 953.3 376.3 953.3 374.2C953.3 352.6 953.3 331 953.3 309.4C953.3 308 953.2 306.5 953.1 305.1C953.1 304.5 952.1 304.1 951.6 304.4C950.8 305 950.1 305.5 949.3 306.2C941.8 312.5 929.6 312.6 922.3 306.1C920.3 304.3 918.2 303.8 915.8 304C914.3 304.1 913.9 304.5 913.7 306C913 311.2 912.4 316.5 911.8 321.7C910.4 334.1 909 346.5 907.6 358.9C906.2 371.5 904.6 384 903.2 396.5C901.8 409.1 900.4 421.6 899 434.2C897.6 446.8 896 459.3 894.6 471.8C893.2 484.4 891.8 496.9 890.4 509.5C889 522.1 887.5 534.6 886 547.1C884.4 561.1 882.7 575.1 881.2 589C881 591.2 880.2 592.6 878.3 593.5C877.6 593.9 876.9 594.3 876.3 594.8C859.5 606.4 848.7 622.1 844.4 642.1C841.9 653.7 843 665.4 842.8 677C842.8 678.5 843.3 679 844.9 679C849.5 679.1 854.2 679.1 858.8 679C860.8 679 861 678.7 861.3 676.9C861.6 674 861.7 671.1 862.2 668.3C866.7 641.6 880.1 620.7 902.7 605.8C903.9 605 905.1 604.2 906.4 603.6C912.4 600.7 919.4 602.7 922.7 608.4C926 614.1 924.5 621.1 919.1 625C917.9 625.8 916.6 626.5 915.5 627.3C899.2 638.5 889.4 653.8 886.8 673.5C886 679.4 885.5 679 891.6 679C918.8 679.4 946 679.4 973.2 679.4Z" fill="#FCE8DB"/>
<path d="M686.5 679.4C713.5 679.4 740.6 679.4 767.6 679.4C769 679.4 770.5 679.4 771.9 679.4C773 679.4 773.7 678.9 773.8 677.7C773.8 677.1 773.9 676.4 773.9 675.8C773.9 668.8 773.9 661.7 773.8 654.7C773.5 642.3 770 630.8 763.8 620.1C757.6 609.4 749.2 600.7 738.7 594.1C736.6 592.8 735.4 591.2 735.4 588.7C735.4 588.2 735.3 587.7 735.3 587.3C734.2 575 733.2 562.8 732.1 550.5C730.9 537 729.7 523.4 728.4 509.9C727.8 503.7 727.2 497.5 726.6 491.3C726.4 489.5 726 489 724.3 488.9C722.9 488.8 721.4 488.8 720 488.8C689.3 488.8 658.6 488.8 627.9 488.8C621.8 488.8 615.7 488.8 609.7 488.8C605.9 488.8 605.8 489.2 605.5 492.4C605.3 494.8 604.9 497.2 604.7 499.5C603.6 508.7 602.6 517.9 601.5 527.1C600.3 537.3 599.2 547.4 598 557.6C596.8 568.2 595.5 578.9 594.3 589.5C594.1 591.5 593.2 592.7 591.6 593.7C589.2 595.3 586.8 596.9 584.5 598.7C569.4 610.8 560.1 626.5 556.9 645.6C555.1 656.1 556.1 666.7 556 677.2C556 678.9 556.5 679.4 558.4 679.4C561.9 679.5 565.4 679.4 569 679.4C574.9 679.4 574.3 680 574.8 674C576.5 654.2 584.1 637 597.2 622.1C603 615.4 609.8 609.8 617.3 605.2C619.4 603.9 621.5 602.9 624 602.6C629.7 602.1 634.8 605.4 636.8 610.7C638.7 615.8 637.1 621.6 632.7 624.9C631.3 626 629.7 626.8 628.3 627.8C611.5 639.6 601.7 655.5 599.7 676.1C599.4 679.2 599.5 679.3 602.7 679.4C603.8 679.4 604.9 679.4 606.1 679.4C632.8 679.4 659.7 679.4 686.5 679.4Z" fill="#E2B369"/>
<path d="M665.9 484.8C683.5 484.8 701.1 484.8 718.7 484.8C719.8 484.8 720.9 484.8 722.1 484.8C725.9 484.7 726 484.7 725.7 481.1C725.3 475.5 724.8 469.9 724.3 464.4C723.5 455.5 722.7 446.6 721.8 437.6C721 429 720.3 420.4 719.5 411.8C718.3 398.7 717.1 385.7 715.9 372.6C715.1 364.3 714.4 356 713.7 347.7C712.5 335 711.3 322.2 710.2 309.5C709.7 303.5 709.8 304.2 704.3 304.1C680.3 304.1 656.3 304.1 632.3 304.1C631.5 304.1 630.7 304.1 629.9 304.1C627.1 304.2 626.9 304.3 626.6 307C625.4 317.5 624.1 328 622.9 338.4C621.2 353.7 619.5 368.9 617.7 384.2C615.9 399.5 614.1 414.7 612.4 429.9C610.5 446.3 608.6 462.6 606.8 479C606.1 484.9 605.8 484.6 611.6 484.6C629.8 484.8 647.8 484.8 665.9 484.8Z" fill="#FCE8DB"/>
<path d="M952.2 998.2C917.8 998.2 883.4 998.2 849 998.2C847.6 998.2 846.1 998.2 844.7 998.2C843.6 998.2 842.9 998.8 842.8 999.9C842.8 1001.2 842.7 1002.5 842.7 1003.7C842.7 1012.3 842.7 1021 842.7 1029.6C842.7 1032.2 842.6 1034.7 842.7 1037.3C843.3 1048.7 851.5 1057.9 862.8 1059.7C864.8 1060 866.9 1060.1 869 1060.1C924 1060.1 979.1 1060.1 1034.1 1060.1C1035.1 1060.1 1036 1060.1 1037 1060.1C1040.1 1060 1043.1 1059.6 1045.9 1058.3C1055.1 1054.1 1060.6 1047.1 1060.7 1036.7C1060.8 1025.8 1060.7 1014.9 1060.7 1004.1C1060.7 997.5 1061.3 998.1 1054.8 998.1C1020.7 998.1 986.5 998.2 952.2 998.2Z" fill="#E2B369"/>
<path d="M665.2 998.2C630.8 998.2 596.4 998.2 562 998.2C560.6 998.2 559.1 998.2 557.7 998.3C556.5 998.3 556 999.1 556 1000.2C556 1000.5 556 1000.8 556 1001.2C556 1013.4 555.8 1025.5 556.1 1037.7C556.3 1048.6 564.6 1057.8 575.3 1059.9C577.8 1060.4 580.4 1060.4 582.9 1060.4C637.6 1060.4 692.3 1060.4 747 1060.4C748.3 1060.4 749.6 1060.4 750.8 1060.4C761.5 1059.8 770.2 1053 773.1 1043C773.9 1040.2 773.9 1037.3 773.9 1034.4C773.9 1024.3 773.9 1014.2 773.9 1004.2C773.9 997.7 774.3 998.4 767.9 998.4C733.6 998.1 699.4 998.2 665.2 998.2Z" fill="#E2B369"/>
<path d="M1445.8 414.1C1464.7 414.1 1483.6 414.1 1502.4 414.1C1503.8 414.1 1505.3 414.1 1506.7 414C1507.4 414 1507.9 413.4 1507.9 412.7C1507.9 412.1 1507.9 411.4 1507.8 410.8C1505.4 396.3 1502.4 381.9 1497.9 367.9C1496.1 362.4 1494.2 357 1491.8 351.8C1491.3 350.6 1490.6 350.5 1489.6 351.4C1488.9 352 1488.2 352.7 1487.5 353.3C1467.4 370.9 1438.7 372.3 1417 356.7C1416.2 356.1 1415.5 355.5 1414.7 355C1414 354.5 1413.3 354.3 1412.5 354.9C1411.9 355.4 1411.2 355.9 1410.6 356.3C1404.3 360.6 1397.4 362.8 1389.8 362.5C1388.5 362.5 1387.2 362.3 1386 362.3C1384.4 362.2 1384.1 362.5 1384 364.2C1384 364.7 1384 365.2 1384 365.6C1384 380.5 1384 395.4 1384 410.2C1384 413.9 1384.1 413.9 1387.7 414C1388.7 414 1389.6 414 1390.6 414C1409 414.1 1427.4 414.1 1445.8 414.1Z" fill="#FFFEF8"/>
<path d="M981.1 335.5C981.1 330.9 981.1 326.2 981.1 321.6C981.1 312.8 981.1 304 981.1 295.2C981.1 293.9 981.1 292.6 981.3 291.4C981.4 290.6 982.1 290 983 290C983.9 289.9 984.6 290.4 984.7 291.3C984.9 292.9 984.9 294.5 985 296.1C985.1 297 985.8 297.4 986.7 296.9C987.1 296.7 987.5 296.4 987.9 296.2C997.3 290.2 1002.5 277.8 998.4 265.9C994.9 255.8 984.5 247.1 971.1 248.4C958.8 249.6 949.5 259.5 948 270.1C947.8 271.4 947.6 272.6 947.2 273.8C946.9 274.6 946.1 275.1 945.3 274.8C943.8 274.3 942.3 273.6 940.8 273.1C934.2 271.2 928.4 272.7 923.6 277.4C918.9 282 917.3 287.7 919 294.1C920.8 301 926.8 306.2 933.5 307C941.4 307.9 948.2 304.2 951.6 297.2C952.1 296.2 952.4 295.1 952.9 294.1C953.4 293.2 954.3 292.8 955.3 293C956.4 293.2 957 293.9 957.1 294.9C957.2 296.5 957.3 298.1 957.3 299.7C957.3 324.3 957.3 349 957.3 373.6C957.3 375.4 957.3 377.1 957.5 378.9C958.4 384.9 963.5 389.1 969.6 388.9C975.4 388.7 980.2 384.1 980.8 378.3C980.9 376.9 980.9 375.4 980.9 374C981.1 361 981.1 348.3 981.1 335.5Z" fill="#FFFEF8"/>
<path d="M1222.2 414.1C1236.1 414.1 1250 414.1 1263.9 414.1C1269.2 414.1 1269 414.2 1269 409.2C1269 391.5 1269 373.7 1269 356C1269 355 1269 354.1 1268.9 353.1C1268.9 352.7 1268.7 352.4 1268.4 352.5C1268.1 352.6 1267.8 352.8 1267.7 353C1267.3 353.5 1267 354.1 1266.7 354.6C1264.4 358.6 1261.8 362.5 1258.6 365.8C1243.9 381.3 1225.9 388.1 1204.6 385.8C1197.9 385.1 1191.5 383.1 1185.4 380.2C1182.4 378.8 1182.4 378.8 1181.6 381.8C1179.2 390.9 1177.4 400.2 1175.9 409.5C1175.3 413.6 1174.7 414.1 1179.7 414.1C1193.7 414.1 1208 414.1 1222.2 414.1Z" fill="#FFFEF8"/>
<path d="M1344.9 290.7C1345 273.6 1331.3 259.9 1314.3 259.7C1297.3 259.4 1283.1 273.7 1283.1 290.6C1283.1 307.5 1297.3 321.4 1313.9 321.4C1330.7 321.4 1345 307.5 1344.9 290.7Z" fill="#FFFEF8"/>
<path d="M1391.1 358.6C1407.6 358.5 1421.4 344.7 1421.1 328.2C1420.8 309.8 1405.5 298 1390.7 298.2C1374.1 298.4 1360.5 312 1360.7 328.6C1360.8 345.2 1374.5 358.7 1391.1 358.6Z" fill="#FFFEF8"/>
<path d="M1092.3 1060.6C1104.6 1060.6 1116.9 1060.6 1129.2 1060.6C1130.2 1060.6 1131.7 1061.2 1132.1 1059.9C1132.4 1059 1131.2 1058.4 1130.6 1057.7C1130.1 1057.1 1129.5 1056.6 1128.9 1056C1109.1 1036.2 1089.4 1016.4 1069.6 996.7C1068.3 995.4 1067.5 993.5 1065.3 993.4C1064.4 995 1065 996.8 1064.9 998.5C1064.8 999.4 1064.9 1000.4 1064.9 1001.4C1064.9 1013.1 1064.9 1024.7 1064.9 1036.4C1064.9 1041.5 1063.7 1046.2 1061.1 1050.6C1059.4 1053.5 1057.2 1056 1054.5 1058.1C1053.9 1058.6 1053.3 1059.1 1052.7 1059.7C1052.6 1059.8 1052.9 1060.4 1053.1 1060.4C1054.4 1060.5 1055.6 1060.6 1056.9 1060.6C1068.7 1060.6 1080.5 1060.6 1092.3 1060.6Z" fill="white"/>
<path d="M667.5 268.3C661.7 268.3 656 268.3 650.2 268.3C644.3 268.3 638.4 268.4 632.5 268.3C626.5 268.2 619.4 273.1 618.7 281.1C618.6 282.7 618.5 284.3 618.5 285.9C618.5 289.8 618.7 290 622.5 289.9C624.5 289.8 624.6 289.8 625 287.9C625.2 287.3 625.2 286.6 625.5 286.1C625.8 285.5 626.3 285.1 627 285.1C627.7 285.1 628.2 285.4 628.5 286C628.7 286.4 628.8 286.9 629 287.4C629.7 289.9 629.7 289.9 632.1 289.9C633.1 289.9 634 289.9 635 289.8C635.9 289.7 636.5 289.3 636.7 288.4C636.8 287.6 637 286.8 637.2 286.1C637.4 285.5 638 285.1 638.7 285C639.4 285 640 285.3 640.3 285.9C640.5 286.3 640.7 286.8 640.8 287.2C641.6 289.8 641.6 289.8 643.8 289.8C644.8 289.8 645.7 289.8 646.7 289.7C647.8 289.6 648.5 289.2 648.6 288C648.7 286.7 648.7 285.1 650.3 285C652.2 284.9 652.5 286.5 652.6 288C652.6 288.6 652.8 289.4 653.5 289.5C655.4 289.9 657.3 290 659.2 289.5C660.9 289 660 287.3 660.5 286.2C660.6 285.9 660.8 285.7 661 285.4C661.6 284.7 663 284.7 663.5 285.5C663.7 285.9 664 286.3 664.1 286.8C664.9 289.7 664.9 289.7 667.8 289.7C668.6 289.7 669.4 289.7 670.2 289.7C671.3 289.6 671.9 289.1 672 287.9C672 286.6 672.1 285.3 673.7 284.9C674.8 284.7 675.3 285.4 675.9 287.9C676 288.5 676.1 289.3 676.8 289.4C678.7 289.8 680.6 289.9 682.5 289.4C684.2 289 683.2 287.2 683.8 286.1C683.9 286 683.9 285.8 684 285.7C684.4 285.2 684.9 284.8 685.6 284.8C686.3 284.8 686.9 285.2 687.1 285.8C687.4 286.4 687.5 287 687.5 287.7C687.5 289.1 688.4 289.6 689.6 289.7C690.4 289.7 691.2 289.7 692 289.7C694.4 289.7 694.4 289.7 695.2 286.8C695.3 286.4 695.6 285.9 695.8 285.5C696.4 284.5 698.2 284.6 698.6 285.6C698.8 286 698.9 286.5 699 287C699.7 289.5 699.7 289.6 702 289.6C703 289.6 703.9 289.6 704.9 289.6C706 289.6 706.6 289 706.7 287.8C706.8 286.3 707.1 284.7 709 284.8C710.7 284.9 710.6 286.5 710.8 287.8C710.9 288.9 711.5 289.5 712.6 289.6C713.4 289.6 714.2 289.6 715 289.6C716.5 289.5 716.9 289.1 716.9 287.5C717 285.4 717 283.3 716.9 281.3C716.5 275.3 712.4 270.3 706.8 268.6C704.9 268 703 268.1 701.1 268.1C689.9 268.3 678.7 268.3 667.5 268.3Z" fill="#F7AB00"/>
<path d="M1090 972.1C1086.7 972.1 1083.7 973.3 1081.2 975.4C1080.1 976.3 1079.1 977.3 1078.1 978.4C1074.7 981.9 1074.4 981.1 1078.3 984.9C1079.1 985.7 1080 985.7 1080.8 984.9C1081.8 984 1082.8 983.1 1084.2 984C1085.1 984.6 1085 985.7 1083.6 987.7C1083 988.6 1082.8 989.4 1083.6 990.2C1084.2 990.8 1084.7 991.3 1085.3 991.9C1087.3 993.9 1087.3 993.8 1089.9 992.3C1090.2 992.1 1090.5 992 1090.8 991.9C1091.7 991.6 1092.4 992 1092.9 992.6C1093.3 993.1 1093.4 993.8 1093 994.4C1092.6 995.1 1092 995.6 1091.6 996.3C1091.4 996.7 1091.3 997.3 1091.5 997.6C1092.7 999.3 1094 1001 1096 1001.8C1097.1 1002.2 1097.8 1000.6 1098.8 1000.2C1098.9 1000.1 1099.1 1000.1 1099.2 1000C1100.2 999.6 1101.5 1000.8 1101.4 1001.9C1101.3 1002.9 1100.7 1003.6 1100 1004.3C1099.3 1005 1099.5 1005.7 1100.1 1006.4C1100.9 1007.2 1101.6 1008 1102.4 1008.8C1104 1010.3 1104 1010.3 1105.9 1009.1C1107.6 1008.1 1108.7 1008 1109.3 1008.9C1110.1 1010.1 1109.4 1010.9 1108.7 1011.9C1107.4 1013.7 1107.5 1013.8 1108.7 1015.1C1109.5 1015.9 1110.3 1016.7 1111.1 1017.5C1112.1 1018.5 1113 1018.5 1114 1017.5C1114.3 1017.2 1114.7 1016.9 1115.1 1016.6C1115.9 1016.2 1116.6 1016.2 1117.3 1016.9C1118 1017.5 1118.2 1018.3 1117.7 1019C1117.3 1019.7 1116.7 1020.2 1116.3 1020.9C1116.1 1021.3 1116 1021.9 1116.2 1022.2C1117.4 1023.9 1118.7 1025.6 1120.7 1026.4C1121.8 1026.9 1122.4 1025.2 1123.5 1024.9C1123.7 1024.9 1123.8 1024.8 1124 1024.8C1124.6 1024.7 1125.3 1024.8 1125.8 1025.3C1126.3 1025.8 1126.4 1026.5 1126.2 1027.1C1125.9 1027.8 1125.4 1028.5 1124.9 1029.1C1124.3 1029.9 1124.4 1030.5 1125 1031.2C1125.5 1031.8 1126.1 1032.4 1126.7 1032.9C1127.5 1033.6 1128.1 1034.9 1129.3 1034.8C1130.1 1034.7 1130.9 1033.8 1131.6 1033.3C1131.7 1033.2 1131.9 1033.1 1132 1033.1C1132.8 1032.7 1133.6 1033 1134.2 1033.6C1134.7 1034.1 1134.9 1034.8 1134.5 1035.4C1134.1 1036.1 1133.6 1036.7 1133.1 1037.3C1132.6 1038 1132.6 1038.8 1133.2 1039.4C1133.8 1040 1134.3 1040.6 1134.9 1041.1C1135.6 1041.7 1136.3 1042.5 1137.1 1042.9C1138.1 1043.3 1138.7 1042.2 1139.5 1041.7C1139.8 1041.5 1140 1041.3 1140.3 1041.3C1140.9 1041.2 1141.6 1041.2 1142.1 1041.7C1142.6 1042.2 1142.7 1042.8 1142.7 1043.4C1142.6 1044.4 1141.8 1045 1141.2 1045.8C1140.6 1046.7 1141.1 1047.3 1141.7 1047.9C1142.7 1048.8 1143.4 1050.3 1145 1050.3C1145.3 1050.3 1145.6 1050 1145.8 1049.8C1147.4 1048.2 1149.1 1046.7 1150.5 1045C1155.4 1039.3 1155.3 1031.8 1150.4 1026.2C1149.7 1025.4 1148.8 1024.6 1148.1 1023.8C1132.8 1008.5 1117.6 993.3 1102.3 978C1101.4 977.1 1100.5 976.2 1099.5 975.3C1096.6 973.2 1093.5 972 1090 972.1Z" fill="#F7AB00"/>
<path d="M578.3 676.5C578.3 678.2 578.3 679.8 578.3 681.4C578.3 682 578.4 682.7 578.6 683.3C579.4 687.1 582.6 689.8 586.4 689.9C590.2 690.1 593.8 687.6 594.8 684.1C595.2 682.9 595.2 681.6 595.2 680.3C595.4 676.5 595.7 672.6 596.5 668.9C600.5 649.4 610.9 634.3 627.6 623.5C628.7 622.8 629.8 622.2 630.7 621.3C633.7 618.6 634.3 614.2 632.2 610.8C630 607.2 625.7 605.7 621.8 607.3C620.5 607.8 619.2 608.6 618 609.4C594 625.4 580.9 647.9 578.3 676.5Z" fill="#F4DAB8"/>
<path d="M865.4 676.9C865.4 679 865.2 681.1 865.6 683.2C866.4 687.2 869.7 690 873.7 690C877.9 690 881.4 687.1 882.1 682.9C882.3 681.8 882.2 680.7 882.3 679.6C882.7 675.9 882.9 672.2 883.6 668.7C887.6 649.4 898 634.4 914.4 623.7C915.5 623 916.6 622.4 917.5 621.5C920.7 618.6 921.3 614.2 919 610.6C917.3 608 913 605.2 908.5 607.5C906.6 608.4 904.9 609.5 903.2 610.7C880.2 626.7 867.7 648.9 865.4 676.9Z" fill="#FCF1EB"/>
<path d="M1271.5 301.7C1262 301.7 1254.9 309 1254.8 318C1254.7 328.2 1263 334.6 1271.1 334.7C1280.1 334.8 1287.8 327.5 1287.9 318.4C1287.9 310.9 1281.3 301.6 1271.5 301.7Z" fill="#FFFEF8"/>
<path d="M1113.4 1034.1C1113.7 1034 1114 1034 1114.3 1033.8C1117.9 1031.2 1118 1030.3 1115 1027.4C1112.5 1025 1112.5 1025 1110.1 1027.3C1108.2 1029.3 1108.2 1029.4 1110.2 1031.5C1111 1032.3 1111.8 1033.1 1112.6 1033.8C1112.7 1033.9 1113.1 1034 1113.4 1034.1Z" fill="#E8CF9C"/>
<path d="M1095.9 1008.9C1095.8 1009 1095.6 1009 1095.5 1009.1C1094.2 1010.1 1092.7 1011 1092.3 1012.5C1091.9 1014.1 1093.7 1014.7 1094.6 1015.8C1094.9 1016.2 1095.3 1016.5 1095.6 1016.8C1096.7 1017.8 1097.1 1017.8 1098.4 1016.7C1098.9 1016.3 1099.3 1015.8 1099.8 1015.4C1101.2 1014 1101.2 1013.7 1099.9 1012.3C1098.9 1011.3 1097.9 1010.3 1096.8 1009.3C1096.5 1009.1 1096.2 1009 1095.9 1008.9Z" fill="#E8CF9C"/>
<path d="M1109 1022C1108.9 1021.7 1108.9 1021.4 1108.7 1021.1C1108 1020.3 1107.2 1019.5 1106.4 1018.7C1104.3 1016.7 1104.2 1016.7 1102.2 1018.6C1099.8 1020.9 1099.8 1020.9 1102.3 1023.4C1102.9 1024 1103.4 1024.5 1104 1025.1C1104.8 1025.9 1105.6 1026.1 1106.5 1025.2C1107.3 1024.4 1108.1 1023.6 1108.8 1022.8C1108.9 1022.6 1108.9 1022.3 1109 1022Z" fill="#E8CF9C"/>
<path d="M1125.5 1038.5C1125.4 1038.2 1125.3 1037.9 1125.1 1037.6C1124.4 1036.8 1123.6 1036 1122.8 1035.2C1120.6 1033.1 1120.6 1033.1 1118.3 1035.4C1116.3 1037.5 1116.3 1037.5 1118.3 1039.6C1118.9 1040.2 1119.4 1040.7 1120 1041.3C1121.5 1042.7 1121.8 1042.7 1123.1 1041.4C1123.8 1040.8 1124.4 1040.1 1125.1 1039.3C1125.4 1039.2 1125.4 1038.8 1125.5 1038.5Z" fill="#E8CF9C"/>
<path d="M1084.2 997.1C1084.1 997 1084.1 996.8 1084 996.7C1082.7 995.3 1081.4 994 1080 992.7C1079.8 992.5 1079 992.5 1078.7 992.8C1077.7 993.6 1076.8 994.5 1076 995.4C1075.4 996.1 1075.5 996.8 1076.2 997.5C1076.5 997.8 1076.9 998.2 1077.2 998.5C1080.4 1001.8 1081.4 1001.7 1084 998C1084.1 997.9 1084.2 997.7 1084.2 997.6C1084.3 997.4 1084.2 997.3 1084.2 997.1Z" fill="#E8CF9C"/>
<path d="M1088.7 1009.4C1088.8 1009.4 1089 1009.4 1089.1 1009.3C1090.4 1008.4 1091.8 1007.4 1092.3 1005.9C1092.8 1004.4 1091.1 1003.8 1090.4 1002.9C1089.9 1002.3 1089.3 1001.8 1088.7 1001.2C1088 1000.6 1087.2 1000.6 1086.6 1001.2C1085.8 1001.9 1085 1002.7 1084.2 1003.6C1083.9 1003.9 1083.6 1004.4 1083.9 1004.9C1085 1006.6 1086.6 1008 1088.2 1009.3C1088.3 1009.3 1088.5 1009.3 1088.7 1009.4Z" fill="#E8CF9C"/>
<path d="M1133.7 1046.7C1133.6 1046.4 1133.6 1046.1 1133.4 1045.9C1132.7 1045.1 1131.9 1044.3 1131.1 1043.5C1129 1041.5 1128.9 1041.5 1126.9 1043.4C1124.5 1045.7 1124.5 1045.8 1126.9 1048.2C1127.5 1048.8 1128 1049.3 1128.6 1049.9C1129.4 1050.7 1130.2 1050.9 1131 1050C1131.8 1049.2 1132.6 1048.4 1133.3 1047.6C1133.5 1047.4 1133.6 1047 1133.7 1046.7Z" fill="#E8CF9C"/>
<path d="M656 300.1C656.5 300.1 656.9 300.1 657.4 300.1C659.8 300 660.1 299.7 660.1 297.3C660.2 294.3 659.8 293.9 656.5 293.9C652.5 293.8 652.1 294.3 652.5 298.2C652.6 299.6 653 300 654.6 300.1C655.1 300.2 655.6 300.1 656 300.1Z" fill="#E8CF9C"/>
<path d="M1076 988.9C1075.9 988.8 1075.9 988.6 1075.8 988.5C1074.6 987.2 1073.7 985.3 1071.9 985.2C1070.5 985.1 1069.7 986.9 1068.7 987.8C1068.6 987.9 1068.5 988.1 1068.4 988.2C1068.2 988.6 1067.9 989.1 1068.3 989.5C1069.4 990.8 1070.3 992.8 1072.1 992.8C1073.7 992.8 1074.6 991 1075.6 989.8C1075.9 989.5 1075.9 989.2 1076 988.9Z" fill="#E8CF9C"/>
<path d="M643.9 300.1C648.4 300.1 648.8 299.7 648.5 295.9C648.4 294.8 647.9 294.2 646.8 294C646.2 293.9 645.5 293.9 644.9 293.9C640.8 293.9 640.6 293.8 640.9 298.6C640.9 298.8 640.9 298.9 641 299C641.3 299.3 641.6 299.8 642 299.9C642.8 300.2 643.6 300.1 643.9 300.1Z" fill="#E8CF9C"/>
<path d="M703.1 300.2C706.5 300.2 706.8 299.9 706.7 296.4C706.6 294.4 706.3 294 704.1 294C702.9 294 701.6 294 700.4 294.2C699.8 294.3 699.3 294.8 699.2 295.5C698.4 299.2 699.2 300.2 703.1 300.2Z" fill="#E8CF9C"/>
<path d="M667.8 300.2C671.6 300.2 671.8 300.1 671.9 297.3C671.9 294.4 671.7 294 668.7 294C667.9 294 667.1 294 666.3 294C664.5 294.1 664.2 294.5 664.1 296.4C664 299.9 664.2 300.1 667.8 300.2Z" fill="#E8CF9C"/>
<path d="M678.7 300.1C679.7 300.1 680.1 300.1 680.6 300.1C683.1 300 683.4 299.8 683.4 297.4C683.5 294.2 683.2 293.9 680 293.9C679.4 293.9 678.7 293.9 678.1 293.9C676.1 294 675.8 294.4 675.7 296.6C675.7 297.2 675.7 297.9 675.8 298.5C675.9 299.4 676.4 299.9 677.3 300C678 300.1 678.6 300.1 678.7 300.1Z" fill="#E8CF9C"/>
<path d="M691.2 300.1C691.8 300.1 692.5 300.1 693.1 300.1C694.6 300 695 299.6 695.1 298.1C695.4 294.3 695 294 691.4 294C690.6 294 689.8 294 689 294.1C688.2 294.2 687.5 294.7 687.5 295.6C687.5 296.5 687.4 297.5 687.5 298.4C687.5 299.6 688.3 300 689.3 300.1C689.9 300.1 690.6 300.1 691.2 300.1Z" fill="#E8CF9C"/>
<path d="M1140.9 1053.9C1140.8 1053.6 1140.7 1053.3 1140.5 1053.1C1139.7 1052.3 1139 1051.5 1138.2 1050.8C1137.5 1050.2 1136.8 1050.2 1136.1 1050.9C1135.4 1051.6 1134.7 1052.2 1134.1 1052.9C1133.1 1054 1133.1 1054.5 1134.2 1055.7C1136.9 1058.6 1137.2 1058.6 1140 1055.6C1140.2 1055.4 1140.4 1055.1 1140.6 1054.9C1140.8 1054.4 1140.9 1054.1 1140.9 1053.9Z" fill="#E8CF9C"/>
<path d="M632.7 300.2C636.2 300.2 636.8 300.5 636.8 296.9C636.8 294.4 636.4 294 633.7 294C632.9 294 632.1 294 631.3 294C629.7 294.1 629.2 294.6 629.1 296.4C629 300.3 629.6 300.2 632.7 300.2Z" fill="#E8CF9C"/>
<path d="M995 300.1C995 300.2 995 300.2 995 300.3C996.6 300.2 998.2 300.2 999.8 299.9C1000.6 299.8 1001.1 299 1001.1 298.1C1001.1 297.4 1000.9 296.8 1000.3 296.5C999.8 296.2 999.2 295.9 998.6 295.8C995.3 295 993.2 297.1 991.2 299.2C991.1 299.3 991.1 299.5 991.1 299.6C991.1 300 991.3 300.1 991.7 300.1C992.7 300.1 993.8 300.1 995 300.1Z" fill="#E2C5B7"/>
<path d="M912.9 300.2C914 300.1 914.9 300 915.8 299.9C916.2 299.9 916.3 299.7 916.4 299.3C916.5 298 915.5 296 914.5 295.8C912.8 295.5 911 295.4 909.4 296.1C908.6 296.4 908.1 297.1 908.1 297.9C908.1 299 908.7 299.7 909.7 299.9C910.8 300.2 911.9 300.2 912.9 300.2Z" fill="#E2C5B7"/>
<path d="M714.2 294C711.2 294 710.7 294.4 710.8 297.3C710.8 297.9 710.8 298.6 711 299.2C711.1 299.6 711.6 300 712 300.1C716 301.2 717.5 299.9 717 295.6C716.9 294.7 716.3 294.2 715.5 294.1C714.9 294 714.5 294 714.2 294Z" fill="#E8CF9C"/>
<path d="M621.5 300.2C622 300.2 622.4 300.2 622.9 300.2C624.5 300.1 624.9 299.7 625 298.3C625.1 297.5 625.1 296.7 625 295.9C624.9 294.5 624.4 294.1 622.9 294C622.4 294 622 294 621.5 294C619 294 618.6 294.5 618.6 297.1C618.6 297.6 618.6 298 618.7 298.5C618.8 299.6 619.5 300.1 620.6 300.2C620.9 300.2 621.2 300.2 621.5 300.2Z" fill="#E8CF9C"/>
<path d="M1317 162.9C1318.1 164.2 1319.8 164.3 1321.1 165.2C1325.6 168.2 1327.8 172.4 1327.4 177.8C1327 183 1324.3 186.7 1319.6 188.9C1314.7 191.2 1306.5 190.7 1302.3 183.1C1298.8 176.8 1301 168.9 1307.1 165.1C1308.4 164.3 1310.1 164.1 1311.3 162.9C1313.1 162.9 1315.1 162.9 1317 162.9Z" fill="#524E43"/>
<path d="M1313.9 186C1319.1 186.1 1323.5 182 1323.6 176.8C1323.7 171.7 1319.4 167.3 1314.3 167.1C1309.2 167 1304.8 171.3 1304.6 176.4C1304.5 181.6 1308.7 185.9 1313.9 186Z" fill="#FFFEF8"/>
<path d="M946.3 234.2C946.2 239.7 941.6 244.1 936 244C930.4 243.8 926.1 239.2 926.3 233.7C926.5 228.3 930.8 224.3 936.3 224.2C941.8 224 946.4 228.7 946.3 234.2Z" fill="#524E43"/>
<path d="M936.2 239.9C939.6 239.9 942.3 237.3 942.3 234C942.3 230.9 939.7 228.2 936.6 228.1C933.3 227.9 930.4 230.5 930.2 233.8C930.1 237.1 932.8 239.9 936.2 239.9Z" fill="#FFFEF8"/>
<path d="M1350.8 208.2C1350.9 214.3 1346 218.3 1340.8 218.3C1335.3 218.4 1330.8 213.7 1330.9 208.1C1331 202.7 1335.2 198.4 1340.6 198.3C1346.4 198.3 1350.8 202.6 1350.8 208.2Z" fill="#524E43"/>
<path d="M1346.9 208.3C1346.9 205 1344.1 202.2 1340.8 202.3C1337.5 202.4 1334.9 205.2 1335 208.5C1335.1 211.6 1337.7 214.2 1340.8 214.3C1344.1 214.4 1346.9 211.6 1346.9 208.3Z" fill="#FFFEF8"/>
<path d="M1230.3 535.1C1236.3 535.2 1241.5 539 1243 544.9C1243.7 547.5 1244 550.2 1244.5 552.9C1250.1 583.5 1259.3 613 1270.5 642C1271.7 645.1 1273 648.2 1274 651.4C1276.2 658.6 1272.3 665.9 1265.1 668.1C1259.1 670 1252.6 667.5 1249.4 661.9C1248.8 660.9 1248.4 659.9 1248 658.9C1237.6 632.7 1228.6 606.1 1222.2 578.7C1220 569.4 1218 560 1216.7 550.5C1215.9 544.8 1218.5 539.5 1223.3 536.7C1225.5 535.5 1227.6 535.1 1230.3 535.1Z" fill="#524E43"/>
<path d="M1230 539.1C1224.7 539.1 1220.6 543.3 1220.6 548.6C1220.6 550.2 1220.9 551.8 1221.2 553.4C1222.5 560.1 1223.7 566.9 1225.2 573.6C1231.6 602.3 1241 630.1 1251.8 657.5C1252.2 658.4 1252.5 659.3 1253 660.1C1255.5 664.4 1260.6 666 1265 664.1C1269.5 662.1 1271.6 657.4 1270.2 652.6C1269.7 651.1 1269.1 649.6 1268.5 648.1C1265.6 640.3 1262.6 632.6 1259.8 624.8C1251.7 601.9 1245 578.6 1240.7 554.6C1240.2 551.8 1239.8 548.9 1239.1 546.1C1238.1 541.7 1234.4 539 1230 539.1Z" fill="#F4DAB8"/>
<path d="M1313.8 753.4C1313.7 760.6 1309.4 765.8 1303 767.2C1297.2 768.5 1290.9 765.5 1288.2 760C1287.8 759.1 1287.5 758.2 1287.2 757.3C1281.7 740.4 1275.1 724 1268.2 707.7C1267.6 706.4 1267.1 705.1 1266.6 703.7C1264.2 696.6 1267.3 689.3 1274 686.6C1280.7 683.8 1288 686.6 1291.4 693.3C1291.7 693.9 1291.9 694.5 1292.2 695.1C1299.1 711.6 1305.9 728.1 1311.6 745.1C1312.2 746.8 1312.8 748.4 1313.2 750.1C1313.5 751.4 1313.7 752.8 1313.8 753.4Z" fill="#524E43"/>
<path d="M1300.2 763.6C1306.3 763.1 1310 758.8 1309.7 753.4C1309.6 752 1309.2 750.6 1308.7 749.2C1302.9 731.2 1295.7 713.8 1288.4 696.4C1288.1 695.7 1287.8 694.9 1287.4 694.2C1284.9 690.1 1280.1 688.4 1275.8 690.1C1271.4 691.8 1268.9 696.7 1270.1 701.5C1270.4 702.7 1271 703.9 1271.5 705.1C1278.4 721.8 1285.2 738.5 1290.9 755.7C1291.2 756.8 1291.6 757.8 1292.2 758.8C1294 762 1296.9 763.3 1300.2 763.6Z" fill="#F4DAB8"/>
<path d="M1320.2 953C1307.2 953 1296.8 942.5 1296.8 929.5C1296.9 916.7 1307.2 906.3 1320 906.3C1332.9 906.3 1343.6 916.2 1343.6 929.6C1343.6 944.1 1331.7 953.3 1320.2 953Z" fill="#524E43"/>
<path d="M1320.4 949.1C1329 949.1 1339.8 942.5 1339.6 929.4C1339.5 917.4 1329.7 910.3 1320.3 910.3C1309.5 910.3 1300.7 919.1 1300.8 929.7C1300.8 940.4 1309.7 949.2 1320.4 949.1Z" fill="#F7C786"/>
<path d="M1397.7 571C1387.7 570.9 1379.9 563 1379.9 553C1379.8 542.6 1388.7 534.8 1398.3 535C1408.1 535.2 1416.1 543.6 1415.9 553.3C1415.6 563.3 1407.8 571.1 1397.7 571Z" fill="#524E43"/>
<path d="M1383.9 552.8C1383.6 561 1390.8 567 1397.7 567C1405.4 567 1411.8 560.8 1412 553.1C1412.1 545.4 1405.9 539 1398.1 538.9C1390.2 539 1384 545 1383.9 552.8Z" fill="#FFFEF8"/>
<path d="M1382.7 937.7C1373.8 937.7 1366.9 930.8 1366.9 922C1366.9 913.3 1374 906.2 1382.8 906.3C1391.3 906.4 1398.3 913.3 1398.4 921.8C1398.5 930.5 1391.5 937.6 1382.7 937.7Z" fill="#524E43"/>
<path d="M1382.7 933.7C1389 933.7 1394.3 928.4 1394.4 922.1C1394.5 915.6 1389.1 910.2 1382.5 910.2C1376.1 910.2 1370.9 915.4 1370.8 921.8C1370.8 928.3 1376.2 933.8 1382.7 933.7Z" fill="#F7C786"/>
<path d="M1383.1 724.5C1391.8 724.7 1398.8 732.1 1398.4 740.8C1398.1 749.3 1391 756.1 1382.5 756C1373.8 755.9 1366.8 748.7 1367 739.9C1367.1 731.2 1374.3 724.3 1383.1 724.5Z" fill="#524E43"/>
<path d="M1382.5 728.5C1376 728.6 1370.6 734.2 1370.9 740.7C1371.2 746.8 1375.9 752.2 1382.8 752.1C1390.7 751.9 1394.6 745.6 1394.4 740C1394.2 733.6 1388.7 728.4 1382.5 728.5Z" fill="#F7C786"/>
<path d="M1370.8 841.3C1370.7 848.6 1364.9 854.2 1357.5 854C1350.5 853.8 1344.8 848 1344.9 841C1345 834 1350.8 828.3 1357.8 828.2C1365.1 828.2 1370.9 834.1 1370.8 841.3Z" fill="#524E43"/>
<path d="M1357.9 850.1C1362.7 850.1 1366.8 846 1366.8 841.2C1366.8 836.5 1362.8 832.3 1358 832.1C1353.1 832 1348.7 836.4 1348.8 841.3C1349 846.1 1353.2 850.2 1357.9 850.1Z" fill="#F7C786"/>
<path d="M1322.1 563.9C1322.3 570.7 1316.5 576.5 1309.2 576.4C1302.2 576.3 1296.7 570.4 1296.9 563.3C1297.1 556.5 1302.8 550.9 1309.6 551C1317.3 551.2 1322.4 557.4 1322.1 563.9Z" fill="#524E43"/>
<path d="M1318.1 563.9C1318.2 558.9 1314.4 555.1 1309.4 555.1C1304.7 555.1 1300.9 559 1300.8 563.6C1300.7 568.3 1304.9 572.5 1309.6 572.5C1314.2 572.4 1318 568.6 1318.1 563.9Z" fill="#FFFEF8"/>
<path d="M1348.8 639.5C1348.8 645.9 1344.1 650.8 1337.7 651C1331.3 651.2 1326 646 1326.1 639.5C1326.2 633.2 1331.1 628.3 1337.5 628.3C1343.9 628.3 1348.8 633.2 1348.8 639.5Z" fill="#524E43"/>
<path d="M1337.4 632.3C1333.4 632.4 1330.2 635.7 1330.2 639.7C1330.2 643.8 1333.4 647 1337.4 647C1341.6 647 1345 643.6 1344.8 639.4C1344.7 635.4 1341.4 632.2 1337.4 632.3Z" fill="#F7C786"/>
<path d="M1243.8 478.3C1243.9 472.5 1248.6 468.1 1254.3 468.3C1259.8 468.5 1264.2 473 1264.2 478.6C1264.2 484.3 1259.6 488.9 1253.8 488.8C1248 488.7 1243.6 484.1 1243.8 478.3Z" fill="#524E43"/>
<path d="M1253.8 484.7C1257.3 484.8 1260.3 481.8 1260.2 478.4C1260.1 475.2 1257.3 472.3 1254.1 472.2C1250.7 472.1 1247.7 475.1 1247.8 478.6C1247.8 482 1250.4 484.6 1253.8 484.7Z" fill="#FFFEF8"/>
<path d="M1421.5 440.6C1421.6 435.3 1425.6 431.5 1431 431.3C1436.2 431.2 1440.6 435.3 1440.6 441C1440.6 446.2 1436.2 450.3 1431.1 450.3C1424.9 450.4 1421.1 445.4 1421.5 440.6Z" fill="#524E43"/>
<path d="M1431.1 446.3C1434.1 446.2 1436.6 443.8 1436.5 440.8C1436.5 437.8 1434 435.4 1431 435.4C1427.8 435.4 1425.2 437.9 1425.4 441.1C1425.6 444.1 1428 446.4 1431.1 446.3Z" fill="#F7C786"/>
<path d="M1461.4 613.5C1457.5 613.4 1454.7 610.3 1454.9 606.2C1455.1 602.5 1458.2 599.7 1461.8 599.8C1465.4 600 1468.4 603.1 1468.4 606.6C1468.5 610.5 1465.3 613.7 1461.4 613.5Z" fill="#524E43"/>
<path d="M1461.9 609.4C1463.4 609.3 1464.6 607.9 1464.4 606.5C1464.3 605.1 1462.8 603.9 1461.4 604C1460 604.1 1458.8 605.5 1458.9 607C1459.1 608.5 1460.3 609.5 1461.9 609.4Z" fill="#F7C786"/>
<path d="M1412 634.7C1412.1 631 1415.1 628.2 1418.8 628.3C1422.5 628.4 1425.4 631.5 1425.3 635.1C1425.2 638.7 1422 641.7 1418.4 641.6C1414.8 641.5 1411.9 638.4 1412 634.7Z" fill="#524E43"/>
<path d="M1421.2 635.1C1421.3 633.7 1419.9 632.3 1418.5 632.4C1417.2 632.4 1416.1 633.5 1416 634.8C1415.9 636.2 1417.2 637.5 1418.7 637.5C1420 637.4 1421.2 636.3 1421.2 635.1Z" fill="#F7C786"/>
<path d="M1322 834.6C1322 837.9 1319.7 840.5 1316.5 840.6C1313.2 840.7 1310.3 837.9 1310.4 834.6C1310.5 831.4 1313.1 828.9 1316.3 828.9C1319.6 828.9 1322 831.3 1322 834.6Z" fill="#524E43"/>
<path d="M1316.5 833C1315.5 832.9 1314.5 833.7 1314.5 834.6C1314.4 835.5 1315.3 836.5 1316.2 836.5C1317.1 836.5 1317.6 835.9 1317.9 835.1C1318.2 834.1 1317.5 833.1 1316.5 833Z" fill="#F7C786"/>
<path d="M664.3 745.1C710.5 744.9 750 782.5 750.1 830.9C750.2 877.5 713 917 664.1 917C615.4 917 578 877.7 578.1 830.9C578.2 782 618.2 744.7 664.3 745.1Z" fill="#524E43"/>
<path d="M663.9 913.1C710.9 912.9 745.9 874.8 746.1 831.6C746.3 785.6 708.7 749.5 665 749C620.8 748.5 582.3 784.4 582.1 830.7C581.9 874.9 617.3 912.8 663.9 913.1Z" fill="#B6D3BD"/>
<path d="M951.1 745.1C996.9 744.7 1037.1 781.9 1037.1 831.2C1037.1 878.1 999.5 917.2 950.8 917C903.2 916.9 865.1 878.8 865.1 831.1C865.1 781 906 744.7 951.1 745.1Z" fill="#524E43"/>
<path d="M950.5 913.1C997.3 913.2 1032.6 875.4 1033.1 832C1033.6 787.5 997.6 750.2 953.3 749C909.9 747.8 869.2 781.9 869 830.8C868.9 877.2 906.1 912.7 950.5 913.1Z" fill="#B6D3BD"/>
<path d="M969 444.2C959.1 444.1 951.2 436 951.2 426.1C951.3 416.1 959.2 408.3 969.2 408.3C978.1 408.2 987.1 414.9 987.2 426.2C987.3 438.4 977.1 444.6 969 444.2Z" fill="#524E43"/>
<path d="M969.5 412.3C961.7 412.2 955.3 418.3 955.2 426C955.1 433.6 961.5 440.2 969.1 440.3C976.8 440.4 983.2 434.2 983.4 426.5C983.4 418.7 977.3 412.4 969.5 412.3Z" fill="#FFFEF8"/>
</svg>
